/* XPM */
static char *e98a5e6eb3674bf4f70f681afcc6bf5c[] = {
/* columns rows colors chars-per-pixel */
"4 4 16 1 ",
"  c black",
". c #0A193C",
"X c #323232",
"o c #3C0F7F",
"O c #7F7F7F",
"+ c #FF0000",
"@ c #00FF00",
"# c #3CFF3C",
"$ c yellow",
"% c #0000FF",
"& c #3C3CFF",
"* c #FF00FF",
"= c #00FFFF",
"- c #7FFFFF",
"; c #FFFFFF",
": c white",
/* pixels */
"+ @%",
"OX*$",
"=&#-",
".o;;"
};
