/* XPM */
static char *_dd6a688666747a2d4ce91aa422015ee[] = {
/* columns rows colors chars-per-pixel */
"105 89 5 1 ",
"  c None",
". c black",
"X c #482014",
"o c #743F21",
"O c #8B4F2D",
/* pixels */
"                                                                                                         ",
"                                                                                                         ",
"                                                                                                         ",
"                                                                                                         ",
"                                                                                                         ",
"                                                                                                         ",
"                                                                                                         ",
"                                                                                                         ",
"                                                                                                         ",
"                                                                                                         ",
"                                                                                                         ",
"                                                                                                         ",
"                                                                                                         ",
"                                                                                                         ",
"                                                                                                         ",
"                                                                                                         ",
"                                                                                                         ",
"                                                                                                         ",
"                                             ..              ..                                          ",
"                                            .Xo.            .oX.                                         ",
"                                           .XOOo.          .oOOX.                                        ",
"                                          .XOOOOo..      ..oOOOOX.                                       ",
"                                          .XOOOOOXX......XXOOOOOX.                                       ",
"                                          .XOOOOXooXXXXXXooXOOOOX.                                       ",
"                                          .XXOOXooooooooooooXOOXX.                                       ",
"                                           .XXXooOOOOOOOOOOooXXX.                                        ",
"                                            .XoOOOOOOOOOOOOOOoX.                                         ",
"                                            .XOXXXOOOOOOOOXXXOX.                                         ",
"                                           .XXXoooOOOOOOOOoooXXX.                                        ",
"                                          .XoooOOOOOOOOOOOOOOoooX.                                       ",
"                                         .XoOOOOOOOOOOOOOOOOOOOOoX.                                      ",
"                                         .XoOOOOOOOOOOOOOOOOOOOOoX.                                      ",
"                                         .XoOOOOOOOOOOOOOOOOOOOOoX.                                      ",
"                                         .XoOOOOOOOOOOOOOOOOOOOOoX.                                      ",
"                                         .XoOOOOOXXXXXXXXXXOOOOOoX.                                      ",
"                                         .XXOOOOXooooooooooXOOOOXX.                                      ",
"                                         .XoOOOXoOOOOOOOOOOoXOOOoX.                                      ",
"                                         .XoOOXoOOOOXOOOXOOOoXOOoX.                                      ",
"                                         .XoOXoOOOOXXOOOXXOOOoXOoX.                                      ",
"                                         .XoXoOOOOOXoOOOoXOOOOoXoX.                                      ",
"                                         .XXoOOOOOOXoOOOoXOOOOOoXX.                                      ",
"                                        .XXoOOOOOOOXooOooXOOOOOOoXX.                                     ",
"                                        .XoOOOOOOOOXXoooXXOOOOOOOoX.                                     ",
"                                        .XoOOOOOOOOoXXXXXoOOOOOOOoX.                                     ",
"                                        .XoOOOOOOOOOoooooOOOOOOOOoX.                                     ",
"                                        .XoOOOOOOOOOOOOOOOOOOOOOOoX.                                     ",
"                                        .XoOOOOOOOOOOOOOOOOOOOOOOoX.                                     ",
"                                        .XoOOOOOOOOOOOOOOOOOOOOOooX.                                     ",
"                                        .XooOOOOOOOOOOOOOOOOooooooX.                                     ",
"                                        .XXoooooOOOOOOOOOOOooooooXX.                                     ",
"                                         .XooooooOOOOOXXOOOoooXXXX.                                      ",
"                                         .XXXXXXoOOOOoXXoOooooXXXX.                                      ",
"                                          .XXXXXoOOOOoXXoooooooXX.                                       ",
"                                          .XXXoooOOOOoXXooooooooX.                                       ",
"                                          .XoooOOOOOOoXXoooooooXX.                                       ",
"                                          .XoOOOOOOOOoXXoooooooX.                                        ",
"                                          .XoOOOOOOOOoXXooooooXX.                                        ",
"                                          .XoOOOOOOOooXXoooooXX.                                         ",
"                                          .XooOOOOOooX..XXoooX.                                          ",
"                                          .XXooOOOooX.  ..XXX.                                           ",
"                                           .XXoooooX.     ...                                            ",
"                                            ..XXXXX.      ...                                            ",
"                                              .....                                                      ",
"                                              .....                                                      ",
"                                                                                                         ",
"                                                                                                         ",
"                                                                                                         ",
"                                                                                                         ",
"                                                                                                         ",
"                                                                                                         ",
"                                                                                                         ",
"                                                                                                         ",
"                                                                                                         ",
"                                                                                                         ",
"                                                                                                         ",
"                                                                                                         ",
"                                                                                                         ",
"                                                                                                         ",
"                                                                                                         ",
"                                                                                                         ",
"                                                                                                         ",
"                                                                                                         ",
"                                                                                                         ",
"                                                                                                         ",
"                                                                                                         ",
"                                                                                                         ",
"                                                                                                         ",
"                                                                                                         ",
"                                                                                                         "
};
