/* XPM */
static char *_3bace69db5e43b1a7b8458fe41839b6[] = {
/* columns rows colors chars-per-pixel */
"34 33 16 1 ",
"  c None",
". c black",
"X c #007600",
"o c #8B481B",
"O c #8A4C1B",
"+ c #AA6611",
"@ c #A26816",
"# c #A16618",
"$ c #8E4F2E",
"% c #945C37",
"& c #BD6A2A",
"* c #ED7600",
"= c #BE9964",
"- c #DDAD44",
"; c #E7A541",
": c gray88",
/* pixels */
"                                  ",
"                                  ",
"                                  ",
"                                  ",
"                                  ",
"                                  ",
"                                  ",
"                                  ",
"                                  ",
"                                  ",
"                                  ",
"                                  ",
"                                  ",
"                                  ",
"                                  ",
"                                  ",
"                                  ",
"                                  ",
"                                  ",
"                                  ",
"                                  ",
"                 ...              ",
"           ......o@@.             ",
"     XXX  .;;&&&++oo@... ..       ",
"   XXX XX.;;;;&&;;;+o@@@.##. XXX  ",
"     XX.X.;;;--&&&;++oo=###.XX.XX ",
"    .*XXXX..;----&&;;+=o=#.*X*XX  ",
"    ......**..----%;$O+==#......  ",
"    .:::::................:::::.  ",
"     ...::::::::::::::::::::...   ",
"        ....................      ",
"                                  ",
"                                  "
};
